<svg width="578" height="130" viewBox="0 0 578 130" fill="none" xmlns="http://www.w3.org/2000/svg">
<path d="M156.275 107.466L162.76 105.845V36.6787L156.275 35.0576V33.4365H185.455C196.406 33.4365 204.44 35.2017 209.555 38.7321C214.743 42.1904 217.336 46.7294 217.336 52.3492C217.336 56.2398 216.219 59.3739 213.986 61.7515C211.753 64.1291 208.907 65.8942 205.448 67.047C201.774 68.3439 197.811 69.0283 193.56 69.1004V69.6407C198.82 69.8569 203.395 70.6494 207.286 72.0183C211.248 73.3152 214.526 75.3326 217.12 78.0704C219.786 80.8082 221.119 84.3026 221.119 88.5534C221.119 94.9657 218.489 100.009 213.229 103.684C207.97 107.286 199.432 109.087 187.616 109.087H156.275V107.466ZM185.455 68.0197C187.833 68.0197 190.03 67.3712 192.047 66.0744C194.137 64.7054 195.794 62.8322 197.019 60.4546C198.316 58.005 198.964 55.3032 198.964 52.3492C198.964 49.1791 198.316 46.3692 197.019 43.9195C195.794 41.4699 194.137 39.5606 192.047 38.1917C190.03 36.8228 187.833 36.1383 185.455 36.1383H180.592V68.0197H185.455ZM187.616 106.385C192.083 106.385 195.722 104.8 198.532 101.63C201.342 98.46 202.746 94.1011 202.746 88.5534C202.746 83.0057 201.342 78.6468 198.532 75.4767C195.722 72.3065 192.083 70.7215 187.616 70.7215H180.592V106.385H187.616Z" fill="black"/>
<path d="M223.246 107.466L229.731 105.845V36.6787L223.246 35.0576V33.4365H237.296C243.78 33.4365 247.022 36.6787 247.022 43.163V105.845L253.507 107.466V109.087H223.246V107.466Z" fill="black"/>
<path d="M283.21 110.708C274.276 110.708 267.251 108.187 262.136 103.143C257.092 98.0277 254.571 91.003 254.571 82.0691C254.571 73.1351 257.092 66.1464 262.136 61.103C267.251 55.9876 274.276 53.4299 283.21 53.4299C292.144 53.4299 299.132 55.9876 304.176 61.103C309.291 66.1464 311.849 73.1351 311.849 82.0691C311.849 91.003 309.291 98.0277 304.176 103.143C299.132 108.187 292.144 110.708 283.21 110.708ZM283.21 108.547C286.092 108.547 288.505 106.529 290.451 102.495C292.468 98.46 293.477 91.6515 293.477 82.0691C293.477 72.4867 292.468 65.6781 290.451 61.6434C288.505 57.6087 286.092 55.5913 283.21 55.5913C280.328 55.5913 277.878 57.6087 275.861 61.6434C273.915 65.6781 272.943 72.4867 272.943 82.0691C272.943 91.6515 273.915 98.46 275.861 102.495C277.878 106.529 280.328 108.547 283.21 108.547Z" fill="black"/>
<path d="M340.526 110.708C336.059 110.708 332.06 109.736 328.53 107.79C326.801 106.854 325.396 105.845 324.315 104.764C323.162 106.349 321.902 107.574 320.533 108.439C319.884 108.871 319.164 109.267 318.371 109.628H315.669V91.2552H319.992C320.929 94.2812 322.298 97.0911 324.099 99.6849C327.918 105.233 332.673 108.006 338.365 108.006C341.391 108.006 343.66 107.286 345.173 105.845C346.758 104.332 347.551 102.171 347.551 99.3606C347.551 96.983 346.47 95.0017 344.309 93.4167C342.219 91.7595 338.905 89.7422 334.366 87.3646C330.475 85.4193 327.305 83.6902 324.856 82.1771C322.478 80.5921 320.425 78.6468 318.695 76.3412C317.038 73.9636 316.21 71.1898 316.21 68.0197C316.21 63.6968 318.047 60.2024 321.721 57.5366C325.468 54.7988 331.196 53.4299 338.905 53.4299C342.723 53.4299 346.254 54.4386 349.496 56.4559C351.081 57.3926 352.45 58.3652 353.603 59.3739C354.539 58.077 355.8 56.8522 357.385 55.6994C358.61 54.9789 359.331 54.5827 359.547 54.5106H362.249V72.8829H357.926C356.845 69.7848 355.512 67.011 353.927 64.5613C350.325 58.9416 346.038 56.1317 341.066 56.1317C339.121 56.1317 337.464 56.8522 336.095 58.2932C334.726 59.7341 334.042 61.5353 334.042 63.6968C334.042 66.4346 335.194 68.7401 337.5 70.6134C339.806 72.4146 343.3 74.504 347.983 76.8816C351.802 78.8269 354.828 80.5561 357.061 82.0691C359.367 83.51 361.312 85.3112 362.897 87.4727C364.554 89.6341 365.383 92.1558 365.383 95.0377C365.383 105.485 357.097 110.708 340.526 110.708Z" fill="black"/>
<path d="M393.486 110.708C389.019 110.708 385.02 109.736 381.49 107.79C379.76 106.854 378.356 105.845 377.275 104.764C376.122 106.349 374.861 107.574 373.492 108.439C372.844 108.871 372.123 109.267 371.331 109.628H368.629V91.2552H372.952C373.889 94.2812 375.257 97.0911 377.059 99.6849C380.877 105.233 385.632 108.006 391.324 108.006C394.35 108.006 396.62 107.286 398.133 105.845C399.718 104.332 400.51 102.171 400.51 99.3606C400.51 96.983 399.43 95.0017 397.268 93.4167C395.179 91.7595 391.865 89.7422 387.326 87.3646C383.435 85.4193 380.265 83.6902 377.815 82.1771C375.438 80.5921 373.384 78.6468 371.655 76.3412C369.998 73.9636 369.169 71.1898 369.169 68.0197C369.169 63.6968 371.007 60.2024 374.681 57.5366C378.428 54.7988 384.155 53.4299 391.865 53.4299C395.683 53.4299 399.213 54.4386 402.456 56.4559C404.041 57.3926 405.41 58.3652 406.562 59.3739C407.499 58.077 408.76 56.8522 410.345 55.6994C411.57 54.9789 412.29 54.5827 412.506 54.5106H415.208V72.8829H410.885C409.805 69.7848 408.472 67.011 406.887 64.5613C403.284 58.9416 398.997 56.1317 394.026 56.1317C392.081 56.1317 390.424 56.8522 389.055 58.2932C387.686 59.7341 387.001 61.5353 387.001 63.6968C387.001 66.4346 388.154 68.7401 390.46 70.6134C392.765 72.4146 396.26 74.504 400.943 76.8816C404.761 78.8269 407.787 80.5561 410.021 82.0691C412.326 83.51 414.272 85.3112 415.857 87.4727C417.514 89.6341 418.342 92.1558 418.342 95.0377C418.342 105.485 410.057 110.708 393.486 110.708Z" fill="black"/>
<path d="M449.687 110.708C440.753 110.708 433.729 108.187 428.613 103.143C423.57 98.0277 421.048 91.003 421.048 82.0691C421.048 73.1351 423.57 66.1464 428.613 61.103C433.729 55.9876 440.753 53.4299 449.687 53.4299C458.621 53.4299 465.61 55.9876 470.653 61.103C475.769 66.1464 478.327 73.1351 478.327 82.0691C478.327 91.003 475.769 98.0277 470.653 103.143C465.61 108.187 458.621 110.708 449.687 110.708ZM449.687 108.547C452.569 108.547 454.983 106.529 456.928 102.495C458.946 98.46 459.954 91.6515 459.954 82.0691C459.954 72.4867 458.946 65.6781 456.928 61.6434C454.983 57.6087 452.569 55.5913 449.687 55.5913C446.806 55.5913 444.356 57.6087 442.339 61.6434C440.393 65.6781 439.421 72.4867 439.421 82.0691C439.421 91.6515 440.393 98.46 442.339 102.495C444.356 106.529 446.806 108.547 449.687 108.547Z" fill="black"/>
<path d="M481.607 107.466L488.091 105.845V58.2932L481.607 56.6721V55.051H491.333C495.584 55.051 498.934 56.4199 501.384 59.1577C502.321 60.2385 503.113 61.5714 503.762 63.1564C504.842 61.1391 505.995 59.518 507.22 58.2932C510.462 55.051 514.173 53.4299 518.351 53.4299C522.53 53.4299 526.205 54.3665 529.375 56.2398C532.545 58.041 534.994 60.5267 536.724 63.6968C537.804 61.6074 538.957 59.9142 540.182 58.6174C543.496 55.1591 547.207 53.4299 551.313 53.4299C555.132 53.4299 558.554 54.2224 561.58 55.8075C564.678 57.3926 567.056 59.554 568.713 62.2918C570.442 65.0297 571.307 68.0197 571.307 71.2618V105.845L577.791 107.466V109.087H563.742C557.257 109.087 554.015 105.845 554.015 99.3606V71.2618C554.015 66.5787 553.295 63.0844 551.854 60.7788C550.413 58.4012 548.792 57.2124 546.991 57.2124C544.901 57.2124 542.776 58.6534 540.614 61.5353C539.75 62.9042 538.993 64.3452 538.345 65.8582V105.845L544.829 107.466V109.087H514.569V107.466L521.053 105.845V71.2618C521.053 66.5787 520.333 63.0844 518.892 60.7788C517.451 58.4012 515.83 57.2124 514.028 57.2124C511.939 57.2124 509.814 58.6534 507.652 61.5353C506.788 62.9042 506.031 64.3452 505.383 65.8582V105.845L511.867 107.466V109.087H481.607V107.466Z" fill="black"/>
<path fill-rule="evenodd" clip-rule="evenodd" d="M68.3092 129.723C67.6121 129.86 66.889 129.906 66.1564 129.85C43.5183 128.132 22.0911 115.628 9.88281 94.4827C-2.32565 73.337 -2.44097 48.5279 7.39099 28.0637C8.8184 25.0927 11.9127 23.3062 15.1994 23.5556C23.6355 24.1957 31.9035 26.3337 39.589 29.8587C45.3881 18.5512 53.968 8.90496 64.4258 1.8227C67.155 -0.0255363 70.7246 -0.0255371 73.4537 1.8227C83.7696 8.80879 92.2581 18.2897 98.0529 29.399C105.447 26.1475 113.356 24.1674 121.419 23.5556C124.706 23.3062 127.8 25.0927 129.227 28.0637C139.059 48.5279 138.944 73.337 126.736 94.4827C114.527 115.628 93.1001 128.132 70.462 129.85C69.7294 129.906 69.0064 129.86 68.3092 129.723ZM84.8955 116.904C98.4649 112.289 110.467 102.924 118.189 89.5485C128.468 71.7449 128.803 50.9261 120.879 33.5068C114.373 34.138 108.004 35.8021 102.03 38.4295C104.944 46.4464 106.534 55.0995 106.534 64.1238C106.534 84.6909 98.2764 103.329 84.8955 116.904ZM89.3162 33.9878C84.475 24.6937 77.4615 16.7071 68.9398 10.6982C60.2356 16.8358 53.1049 25.0367 48.2554 34.5867C55.9738 39.5226 62.8307 46.0156 68.3092 53.9271C74.0122 45.6914 81.2089 38.9929 89.3162 33.9878ZM73.9004 63.4983C78.8588 55.0401 85.5375 48.2055 93.2392 43.1849C95.4618 49.7588 96.666 56.8008 96.666 64.1238C96.666 81.0299 90.2483 96.4389 79.6969 108.046C82.5518 93.3839 80.825 77.768 73.9004 63.4983ZM62.7181 63.4983C57.9826 55.4205 51.6781 48.8235 44.4119 43.8732C42.3354 50.2494 41.2136 57.0558 41.2136 64.1238C41.2136 80.1629 46.99 94.8545 56.5923 106.23C54.2176 92.1005 56.0784 77.1805 62.7181 63.4983ZM68.3092 112.869C72.0137 101.088 72.166 88.2368 68.3092 76.0535C64.4524 88.2368 64.6047 101.088 68.3092 112.869ZM18.429 89.5485C26.502 103.531 39.2528 113.132 53.5816 117.504C39.8494 103.881 31.3453 84.9953 31.3453 64.1238C31.3453 55.2829 32.8712 46.7984 35.6739 38.9192C29.3875 36.0082 22.6411 34.1763 15.739 33.5068C7.81536 50.9261 8.15005 71.7449 18.429 89.5485Z" fill="black"/>
</svg>
