<?xml version="1.0" encoding="UTF-8"?>
<svg version="1.1" xmlns="http://www.w3.org/2000/svg" width="500" height="500">
<path d="M0 0 C2.67906306 0.68706281 5.15376488 1.4190777 7.7421875 2.34375 C8.46028595 2.58854599 9.1783844 2.83334198 9.91824341 3.08555603 C12.24109978 3.87940194 14.55794863 4.6893845 16.875 5.5 C20.09957073 6.61131707 23.32684561 7.71463108 26.5546875 8.81640625 C27.35614197 9.09106216 28.15759644 9.36571808 28.9833374 9.6486969 C33.96196362 11.34380783 38.9588546 12.93044057 44.0078125 14.40234375 C45.19906738 14.75167969 46.39032227 15.10101563 47.61767578 15.4609375 C49.81774872 16.09615417 52.02174233 16.71799646 54.22998047 17.32421875 C61.28007699 19.37278568 61.28007699 19.37278568 64.45703125 22.140625 C66.58464912 26.08345103 68.15343685 30.10898475 69.6875 34.3125 C72.68433732 42.4633627 75.71625167 50.60059172 78.76953125 58.73046875 C79.17933228 59.82242554 79.5891333 60.91438232 80.01135254 62.03942871 C81.0072816 64.69306027 82.00350102 67.34658242 83 70 C83.5542217 70.00059709 84.1084434 70.00119418 84.67945969 70.00180936 C117.52222048 70.03769802 150.36487218 70.09432879 183.20754511 70.17792095 C187.1504073 70.18793849 191.09326991 70.19778261 195.03613281 70.20751953 C195.82109063 70.2094609 196.60604846 70.21140228 197.41479288 70.21340248 C210.12715954 70.24442932 222.83950814 70.26140503 235.55190553 70.27319422 C248.59458918 70.28560225 261.63717802 70.31309574 274.67980182 70.35461307 C282.72877439 70.37975852 290.77758974 70.39311652 298.82660215 70.39142957 C304.99709457 70.39139632 311.16735296 70.41234472 317.33777428 70.44116783 C319.87018021 70.44970072 322.40261966 70.45139394 324.9350338 70.44580269 C328.38836766 70.4391926 331.84073892 70.45701327 335.29397583 70.48101807 C336.29981818 70.47325765 337.30566054 70.46549723 338.34198296 70.45750165 C344.05427514 70.52796112 347.52774486 71.07553303 352 75 C355.53134937 80.29702405 355.3466057 85.96516016 354.28515625 92.1171875 C353.89261349 94.03958429 353.4840188 95.95874816 353.0625 97.875 C352.72786743 99.47166504 352.72786743 99.47166504 352.38647461 101.10058594 C350.06956101 112.0104526 347.53944635 122.8757226 345.02270508 133.7409668 C342.79824237 143.36533975 340.71711459 153.0071084 338.75 162.6875 C335.47511211 178.69336552 335.47511211 178.69336552 333.875 185.4375 C333.46894531 187.16806641 333.46894531 187.16806641 333.0546875 188.93359375 C331.84932182 192.43808287 330.26698321 195.07585629 328 198 C327.34 198 326.68 198 326 198 C326 198.66 326 199.32 326 200 C318.40052746 202.83697912 310.87934518 204.17704256 302.875 205.39453125 C301.50023268 205.60917282 300.12555993 205.82442092 298.75097656 206.04023743 C294.50230247 206.70443251 290.25131398 207.35295727 286 208 C284.71061523 208.19736755 283.42123047 208.39473511 282.09277344 208.5980835 C274.4130673 209.7722381 266.73087947 210.92939128 259.04769897 212.08056641 C228.13458491 216.71336689 197.25659447 221.55353089 166.39286804 226.50410461 C163.26235383 227.00555328 160.13120621 227.50289317 157 228 C155.841586 228.1868335 154.683172 228.37366699 153.48965454 228.56616211 C152.33976044 228.74864502 151.18986633 228.93112793 150.00512695 229.11914062 C148.96926956 229.28498657 147.93341217 229.45083252 146.86616516 229.6217041 C143.19112385 230.10676096 139.6998563 230.1450924 136 230 C135.855625 230.886875 135.71125 231.77375 135.5625 232.6875 C135.08975225 235.47145895 134.5609473 238.23297423 134 241 C134.97460017 241.00054477 135.94920034 241.00108953 136.95333385 241.00165081 C160.65555609 241.01603924 184.35759452 241.05902686 208.0597105 241.13209057 C219.52184367 241.1667598 230.98385634 241.19209863 242.44604492 241.19555664 C252.43522776 241.19859384 262.42419609 241.21905146 272.41329604 241.26052457 C277.70365937 241.28187837 282.99371754 241.29444291 288.28412437 241.28615379 C293.26238955 241.2786288 298.24003567 241.29437332 303.21818733 241.32806015 C305.04632111 241.33631215 306.87451624 241.33602139 308.70264435 241.32659721 C311.19769329 241.31500718 313.69070254 241.33404231 316.18559265 241.36076355 C316.91030862 241.35009029 317.63502459 241.33941703 318.38170165 241.32842034 C322.33007167 241.4074032 323.86575614 241.88633149 326.92590046 244.47745228 C327.61035331 245.30989303 328.29480616 246.14233377 329 247 C329.33 247.33 329.66 247.66 330 248 C329.77840372 251.91486761 329.57509372 254.29504641 327.0625 257.375 C323.15192944 260.45605559 319.77722532 260.14828842 314.97930908 260.14717102 C314.14062184 260.15084771 313.3019346 260.1545244 312.43783259 260.1583125 C309.61121824 260.16937656 306.78464061 260.17319778 303.95800781 260.17700195 C301.93791588 260.18326454 299.9178251 260.18991116 297.8977356 260.19691467 C292.39763059 260.21434331 286.89753428 260.22488149 281.39740849 260.2331202 C277.96306519 260.23826636 274.52872462 260.24434226 271.09438324 260.25063133 C260.35479175 260.26968851 249.61520716 260.28391859 238.87560201 260.2922433 C226.46805031 260.30201898 214.06067686 260.32834502 201.65318799 260.36874419 C192.07011678 260.3988789 182.48709674 260.41370966 172.90397906 260.41702431 C167.17710901 260.4193778 161.45042926 260.42837713 155.72360992 260.45348549 C150.33589915 260.47672489 144.94850454 260.48101601 139.56075668 260.47072411 C137.58304418 260.47022763 135.60531633 260.47658083 133.62765121 260.49028015 C130.92759532 260.50793721 128.22868164 260.50092353 125.52862549 260.48774719 C124.3545844 260.50420106 124.3545844 260.50420106 123.1568253 260.52098733 C117.97584672 260.45994396 114.9642986 259.32865489 111 256 C109.16799073 250.20978091 111.43668697 243.92263538 113.3894043 238.41577148 C116.71662028 229.03251201 117.83062336 223.04555818 113.79296875 213.71484375 C113.51775391 213.14991211 113.24253906 212.58498047 112.95898438 212.00292969 C108.60502244 202.90926785 105.33409051 193.4166535 102.125 183.875 C99.32534292 175.62382779 96.48170495 167.40645193 93.25 159.3125 C91.01670005 153.71900563 88.98601154 148.1032874 87.125 142.375 C84.46925642 134.20881356 81.49127008 126.18317391 78.453125 118.15234375 C75.96510955 111.57568959 73.51861823 104.98658824 71.125 98.375 C70.64764404 97.05894775 70.64764404 97.05894775 70.16064453 95.71630859 C69.48228328 93.84607891 68.80406621 91.97579693 68.12597656 90.10546875 C67.7544043 89.08066406 67.38283203 88.05585938 67 87 C66.57428711 85.82566406 66.14857422 84.65132813 65.70996094 83.44140625 C65.48557846 82.82328064 65.26119598 82.20515503 65.03001404 81.56829834 C64.56553114 80.28873665 64.1015558 79.0089906 63.63807678 77.72906494 C62.45824512 74.47852238 61.26258877 71.23536103 60.03393555 68.00292969 C57.89720768 62.35937557 55.86951516 56.7911915 54.43359375 50.921875 C52.43026684 43.3374943 52.43026684 43.3374943 48 37 C41.02123216 32.98918458 33.17611759 31.36942806 25.36523438 29.75195312 C17.76730076 28.05421404 10.28558544 25.63423946 3.04296875 22.77734375 C1.43567155 22.16577177 -0.19140253 21.60616154 -1.82421875 21.06640625 C-2.81035156 20.73511719 -3.79648438 20.40382813 -4.8125 20.0625 C-5.72644531 19.76472656 -6.64039062 19.46695313 -7.58203125 19.16015625 C-10.38518412 17.8151863 -11.48114097 16.69523023 -13 14 C-13.64686409 10.43876971 -13.35531926 7.03862553 -12.1875 3.625 C-8.98728777 -0.75423779 -4.91178201 -0.48707287 0 0 Z M102 89 C102.36481837 93.89215457 103.59708647 98.25302153 105.1875 102.875 C105.40237061 103.50414307 105.61724121 104.13328613 105.83862305 104.78149414 C106.55086473 106.85727873 107.27400132 108.92898833 108 111 C108.27102539 111.7748877 108.54205078 112.54977539 108.82128906 113.34814453 C110.53391676 118.23697226 112.26189829 123.12017493 114 128 C116.74965228 128.19511725 119.49942132 128.38136433 122.25 128.5625 C123.02730469 128.61857422 123.80460937 128.67464844 124.60546875 128.73242188 C125.35957031 128.78076172 126.11367187 128.82910156 126.890625 128.87890625 C127.58188477 128.9260376 128.27314453 128.97316895 128.98535156 129.02172852 C131.13617072 128.99853136 132.94084871 128.5995764 135 128 C134.27707547 121.76368723 132.7811137 115.81601345 131.1875 109.75 C130.93935547 108.77675781 130.69121094 107.80351562 130.43554688 106.80078125 C128.67182062 100.04207453 126.4966654 93.52248842 124 87 C120.70840684 86.94209647 117.41694397 86.90643739 114.125 86.875 C113.18785156 86.85824219 112.25070313 86.84148437 111.28515625 86.82421875 C110.38925781 86.81777344 109.49335938 86.81132812 108.5703125 86.8046875 C107.74289551 86.79421387 106.91547852 86.78374023 106.06298828 86.77294922 C103.77601843 86.80697743 103.77601843 86.80697743 102 89 Z M140 87 C140.65147844 93.68162647 142.14446266 99.95853704 143.875 106.4375 C144.13152344 107.42298828 144.38804687 108.40847656 144.65234375 109.42382812 C146.5295139 119.36975236 146.5295139 119.36975236 151 128 C152.70772358 128.08713831 154.41898649 128.10700007 156.12890625 128.09765625 C157.16337891 128.09443359 158.19785156 128.09121094 159.26367188 128.08789062 C160.35228516 128.07951172 161.44089844 128.07113281 162.5625 128.0625 C163.65498047 128.05798828 164.74746094 128.05347656 165.87304688 128.04882812 C168.58208495 128.03699826 171.29101599 128.02051543 174 128 C173.32809655 123.7493468 172.65248945 119.49930277 171.97363281 115.24975586 C171.74380431 113.8078556 171.51494051 112.36580119 171.28710938 110.92358398 C170.38989166 98.02316754 170.38989166 98.02316754 166 87 C164.07332493 86.91251793 162.14348139 86.89302666 160.21484375 86.90234375 C159.04501953 86.90556641 157.87519531 86.90878906 156.66992188 86.91210938 C155.43822266 86.92048828 154.20652344 86.92886719 152.9375 86.9375 C151.70193359 86.94201172 150.46636719 86.94652344 149.19335938 86.95117188 C146.12885883 86.96300392 143.06445279 86.97948827 140 87 Z M182 87 C180.87735811 90.88105898 181.30833569 93.40314093 182.1875 97.375 C182.47092929 98.69614893 182.75202455 100.01779995 183.03125 101.33984375 C183.1859375 102.06929199 183.340625 102.79874023 183.5 103.55029297 C184.47575844 108.33093761 185.32383638 113.13557683 186.1875 117.9375 C186.36627686 118.92733887 186.54505371 119.91717773 186.72924805 120.93701172 C187.15401568 123.29113065 187.57762042 125.64545163 188 128 C195.97370237 128.79171513 203.98373107 129.46273878 212 129 C213.25994747 127.96187636 213.25994747 127.96187636 213.1328125 125.68359375 C213.1132495 117.55516663 212.90538732 109.43584255 212.625 101.3125 C212.59422363 100.24894287 212.56344727 99.18538574 212.53173828 98.08959961 C212.47348877 96.58538452 212.47348877 96.58538452 212.4140625 95.05078125 C212.36693115 93.69980347 212.36693115 93.69980347 212.31884766 92.3215332 C212.134875 89.7296245 212.134875 89.7296245 210 87 C207.08935621 86.58210911 207.08935621 86.58210911 203.6796875 86.70703125 C202.42285156 86.71669922 201.16601562 86.72636719 199.87109375 86.73632812 C197.89302734 86.7740332 197.89302734 86.7740332 195.875 86.8125 C194.53517097 86.82754517 193.19532596 86.84123387 191.85546875 86.85351562 C188.56991158 86.88897128 185.28515418 86.93839151 182 87 Z M226 87 C225.92156158 100.72672415 225.95865934 114.31380848 227 128 C229.8329581 128.1967332 232.66596323 128.38259641 235.5 128.5625 C236.29148437 128.61857422 237.08296875 128.67464844 237.8984375 128.73242188 C243.09519779 129.05189484 247.85281562 128.79686914 253 128 C253.28854565 123.60773661 253.57321946 119.21524348 253.85449219 114.82250977 C253.95046427 113.33188299 254.04744704 111.8413209 254.14550781 110.35083008 C254.28724417 108.19368949 254.42519914 106.03633318 254.5625 103.87890625 C254.64628906 102.5854126 254.73007812 101.29191895 254.81640625 99.95922852 C255.01652251 95.64368952 255 91.32017631 255 87 C245.43 87 235.86 87 226 87 Z M270 87 C268.19146492 100.67814393 266.77581522 114.17527166 267 128 C269.70795726 128.19601027 272.41599805 128.38204839 275.125 128.5625 C275.88554687 128.61857422 276.64609375 128.67464844 277.4296875 128.73242188 C281.79993128 129.01498074 285.68070669 128.93147699 290 128 C290.6520027 125.18880696 291.29670121 122.37624969 291.9375 119.5625 C292.11990234 118.77939453 292.30230469 117.99628906 292.49023438 117.18945312 C293.57276215 112.4066486 294.33459288 107.7151258 294.75610352 102.82788086 C295 101 295 101 296 99 C296.2532288 97.15142975 296.45542004 95.2956118 296.625 93.4375 C296.76808594 91.95056641 296.76808594 91.95056641 296.9140625 90.43359375 C296.95660156 89.22896484 296.95660156 89.22896484 297 88 C295.94049948 86.71573103 295.94049948 86.71573103 293.49975586 86.88647461 C291.87372437 86.89432983 291.87372437 86.89432983 290.21484375 86.90234375 C289.04501953 86.90556641 287.87519531 86.90878906 286.66992188 86.91210938 C284.82237305 86.92467773 284.82237305 86.92467773 282.9375 86.9375 C281.70193359 86.94201172 280.46636719 86.94652344 279.19335938 86.95117188 C276.12885883 86.96300392 273.06445279 86.97948827 270 87 Z M312 87 C310.48707446 91.99836343 309.37222781 96.97142504 308.4921875 102.12109375 C308.36184113 102.86585464 308.23149475 103.61061554 308.09719849 104.37794495 C307.68627784 106.73053288 307.28055453 109.08398173 306.875 111.4375 C306.59539673 113.04367983 306.31545208 114.64980026 306.03515625 116.25585938 C305.35282385 120.16989769 304.67514748 124.08471621 304 128 C306.93705131 128.22155127 309.87380363 128.42774197 312.8125 128.625 C314.06256836 128.72167969 314.06256836 128.72167969 315.33789062 128.8203125 C316.14033203 128.871875 316.94277344 128.9234375 317.76953125 128.9765625 C318.50792236 129.02893066 319.24631348 129.08129883 320.00708008 129.13525391 C322.32254205 129.14397982 322.32254205 129.14397982 325 127 C325.97412488 124.39243814 325.97412488 124.39243814 326.60546875 121.28515625 C326.86650391 120.12306641 327.12753906 118.96097656 327.39648438 117.76367188 C327.65751953 116.54228516 327.91855469 115.32089844 328.1875 114.0625 C328.46013672 112.87591797 328.73277344 111.68933594 329.01367188 110.46679688 C330.55872456 103.41531581 332.01015089 96.23536294 331 89 C329.00896808 86.56164332 329.00896808 86.56164332 325.0859375 86.8046875 C323.51550649 86.81799624 321.94513779 86.84186398 320.375 86.875 C319.17230469 86.88853516 319.17230469 86.88853516 317.9453125 86.90234375 C315.96341477 86.92593777 313.98167019 86.96180935 312 87 Z M120 143 C123.20322127 153.94937584 126.97999575 164.68034271 130.75634766 175.44287109 C131.9985578 178.99587498 133.22423931 182.55430569 134.44921875 186.11328125 C135.23619017 188.36746311 136.02392318 190.62137926 136.8125 192.875 C137.1729541 193.93211182 137.5334082 194.98922363 137.90478516 196.07836914 C138.25202637 197.0605542 138.59926758 198.04273926 138.95703125 199.0546875 C139.25585205 199.91562012 139.55467285 200.77655273 139.86254883 201.66357422 C141.56640376 205.16344365 143.65034382 207.48931928 147.3125 208.875 C150.83943542 209.03904351 153.67251641 208.1091612 157 207 C156.50996282 199.56107493 154.64974085 192.90743205 152.41992188 185.80993652 C151.38288117 182.50645335 150.37211811 179.19500029 149.36328125 175.8828125 C149.16094879 175.21942871 148.95861633 174.55604492 148.75015259 173.87255859 C146.5429529 166.58081508 144.62554467 159.21853571 142.76489258 151.83154297 C142.432677 150.51500732 142.432677 150.51500732 142.09375 149.171875 C141.90490234 148.4097168 141.71605469 147.64755859 141.52148438 146.86230469 C141.04365527 144.92942124 141.04365527 144.92942124 140 143 C133.4 143 126.8 143 120 143 Z M155 143 C156.33655189 150.31443814 158.13872823 157.41772901 160.1875 164.5625 C160.81025925 166.75250085 161.43264329 168.94260844 162.0546875 171.1328125 C162.53373535 172.81552246 162.53373535 172.81552246 163.02246094 174.53222656 C164.01567364 178.0556015 164.98392995 181.58500399 165.9453125 185.1171875 C166.41481323 186.83119751 166.41481323 186.83119751 166.89379883 188.57983398 C167.49752639 190.7863355 168.09646996 192.9941526 168.69018555 195.20336914 C168.96386963 196.19715576 169.23755371 197.19094238 169.51953125 198.21484375 C169.75776611 199.09261475 169.99600098 199.97038574 170.24145508 200.87475586 C170.89252537 203.17803466 170.89252537 203.17803466 173 205 C178.00677362 204.66621509 182.28101628 203.76961889 187 202 C185.12522684 186.23315776 182.40588153 170.56964404 179.3125 155 C179.09819336 153.91404541 178.88388672 152.82809082 178.66308594 151.70922852 C178.46102539 150.71205811 178.25896484 149.7148877 178.05078125 148.6875 C177.87200439 147.80449219 177.69322754 146.92148438 177.5090332 146.01171875 C177.18673691 144.01605463 177.18673691 144.01605463 176 143 C174.43827255 142.91314397 172.87270656 142.89297781 171.30859375 142.90234375 C170.36435547 142.90556641 169.42011719 142.90878906 168.44726562 142.91210938 C166.95743164 142.92467773 166.95743164 142.92467773 165.4375 142.9375 C164.44041016 142.94201172 163.44332031 142.94652344 162.41601562 142.95117188 C159.94395151 142.96299993 157.47200482 142.97948151 155 143 Z M191 143 C192.63748064 154.64430679 194.51713013 166.21699746 196.6618042 177.77709961 C196.92806036 179.21265225 197.19259851 180.64852465 197.4553833 182.0847168 C197.83051082 184.12918841 198.21293281 186.17215866 198.59765625 188.21484375 C198.81945557 189.40198975 199.04125488 190.58913574 199.26977539 191.81225586 C199.93461577 194.71456975 200.80447719 197.27976173 202 200 C204.12534659 199.85930804 206.25027529 199.71229079 208.375 199.5625 C209.55835938 199.48128906 210.74171875 199.40007812 211.9609375 199.31640625 C214.91518901 199.18915064 214.91518901 199.18915064 217 198 C217.02772134 196.06258631 217.0467109 194.12504767 217.0625 192.1875 C217.07410156 191.10855469 217.08570313 190.02960938 217.09765625 188.91796875 C217.02125275 185.85266013 216.82479478 182.89753834 216.52734375 179.8515625 C215.82054608 172.53880472 215.62838068 165.21722688 215.39453125 157.87695312 C215.35714844 156.81798828 215.31976563 155.75902344 215.28125 154.66796875 C215.25095703 153.72203857 215.22066406 152.7761084 215.18945312 151.80151367 C214.98970422 148.84775251 214.48670443 145.9202266 214 143 C206.41 143 198.82 143 191 143 Z M228 143 C228.26559655 147.99476239 228.53182881 152.98948348 228.79956055 157.98413086 C228.89008244 159.67616932 228.9802631 161.36822608 229.07006836 163.06030273 C229.63572124 173.7129054 230.25694171 184.35816514 231 195 C234.9908838 195.89699304 237.78650186 195.88710203 241.8125 195.0625 C242.78832031 194.86785156 243.76414062 194.67320312 244.76953125 194.47265625 C245.87361328 194.23869141 245.87361328 194.23869141 247 194 C248.42016587 185.42385271 249.29067091 176.98489668 249.65795898 168.30712891 C249.80615535 164.94273208 250.04221926 161.70698576 250.5234375 158.3671875 C250.99365606 155.04482358 251.10016029 151.91426615 251.0625 148.5625 C251.0315625 145.8090625 251.0315625 145.8090625 251 143 C243.41 143 235.82 143 228 143 Z M265 143 C264.57070631 148.72902654 264.1427671 154.45812128 263.71826172 160.1875 C263.57354768 162.13515029 263.4280486 164.08274241 263.28173828 166.03027344 C263.07115873 168.83513582 262.86343513 171.64019759 262.65625 174.4453125 C262.59062866 175.31116974 262.52500732 176.17702698 262.45739746 177.06912231 C262.14097066 181.39123433 261.92595817 185.66238268 262 190 C265.48512919 191.1727212 268.04677773 190.82907069 271.625 190.125 C272.58664062 189.94195312 273.54828125 189.75890625 274.5390625 189.5703125 C276.98647903 189.10415178 276.98647903 189.10415178 279 188 C279.75609548 185.22439426 279.75609548 185.22439426 280.3125 181.6875 C280.43149658 181.01195068 280.55049316 180.33640137 280.6730957 179.64038086 C280.95242278 178.0528348 281.22805147 176.46463575 281.50097656 174.87597656 C282.08756622 171.49533753 282.69544326 168.11881661 283.3046875 164.7421875 C284.21034301 159.71543099 285.1151063 154.68853466 286.01171875 149.66015625 C286.20209717 148.59418213 286.39247559 147.52820801 286.58862305 146.42993164 C287.02782009 144.24642291 287.02782009 144.24642291 287 143 C279.74 143 272.48 143 265 143 Z M301 143 C300.1597384 147.37347168 299.32226586 151.74730548 298.49145508 156.12255859 C298.20883777 157.60658094 297.92469527 159.09031377 297.63891602 160.57373047 C296.07516115 168.69649217 294.64345891 176.74091986 294 185 C297.42257153 185.96375988 299.62936406 185.88673559 303.125 185.125 C303.99382812 184.94195312 304.86265625 184.75890625 305.7578125 184.5703125 C308.01628917 184.08057674 308.01628917 184.08057674 310 183 C310 182.34 310 181.68 310 181 C310.66 181 311.32 181 312 181 C314.69860487 173.4714597 316.49329755 165.87256415 318.1875 158.0625 C318.46013672 156.83208984 318.73277344 155.60167969 319.01367188 154.33398438 C320.41679393 148.71878635 320.41679393 148.71878635 321 143 C314.4 143 307.8 143 301 143 Z " fill="#ABABAB" transform="translate(79,93)"/>
<path d="M0 0 C7.1569977 3.74204999 10.49388607 9.30027214 14 16.3125 C14.85220231 25.37019312 14.42548063 32.79699253 9 40.3125 C7.08971921 42.49183442 5.48513077 43.65574616 3 45.3125 C2.43796875 45.70308594 1.8759375 46.09367187 1.296875 46.49609375 C-4.7513504 50.1682306 -11.11460126 50.25479947 -18 49.3125 C-24.8413694 47.19158164 -30.25584915 43.46625288 -34 37.3125 C-38.31344578 28.35758976 -37.69410587 20.42373867 -34.65625 11.18359375 C-34.4396875 10.56613281 -34.223125 9.94867188 -34 9.3125 C-33.34 9.3125 -32.68 9.3125 -32 9.3125 C-31.76152344 8.71824219 -31.52304688 8.12398438 -31.27734375 7.51171875 C-29.72898909 4.84589712 -28.14884853 3.77703543 -25.5625 2.125 C-24.78003906 1.61582031 -23.99757812 1.10664063 -23.19140625 0.58203125 C-16.47680739 -3.30788788 -7.04133201 -2.93981538 0 0 Z M-17.4375 16.25 C-20.27115388 19.63656196 -20.85893297 21.10059662 -20.52734375 25.37890625 C-19.61771487 28.71421214 -17.69677054 30.2899221 -15 32.3125 C-13.12042756 33.4701585 -13.12042756 33.4701585 -11 33.3125 C-6.99766627 31.76057468 -3.87542411 30.28398634 -2 26.3125 C-2.06857918 22.47206603 -2.4455351 20.12287178 -4.625 16.9375 C-9.26590514 13.76214385 -12.54096594 13.49013535 -17.4375 16.25 Z " fill="#AAAAAA" transform="translate(246,357.6875)"/>
<path d="M0 0 C4.24511041 2.45227252 6.78174333 4.79761499 9.5 8.875 C10.08587891 9.73544922 10.08587891 9.73544922 10.68359375 10.61328125 C14.16252758 16.42755474 14.36414657 22.24987628 13.5 28.875 C11.29050805 36.61412955 7.0146928 42.68647245 0 46.75 C-6.92415658 49.92357176 -14.06625162 50.25940286 -21.33984375 47.98828125 C-28.43336781 44.77752825 -32.43608219 40.31486302 -36.375 33.75 C-38.90751695 27.01684117 -38.56385507 18.65462828 -36 12 C-32.89063565 6.02298867 -27.96627827 2.37411032 -22.3125 -1.0625 C-14.72215298 -3.17784261 -7.23921908 -3.35449614 0 0 Z M-18.5 15.875 C-21.16123512 19.86685268 -21.34047866 23.18020505 -20.5 27.875 C-18.29560004 30.32433329 -16.48401976 31.39886141 -13.5625 32.8125 C-10.30716826 32.91114642 -8.2327649 31.53842211 -5.5 29.875 C-2.99968346 26.12452518 -2.96396446 24.31643734 -3.5 19.875 C-5.81273442 16.9778059 -5.81273442 16.9778059 -8.5 14.875 C-8.83 14.545 -9.16 14.215 -9.5 13.875 C-13.09250356 13.58371593 -15.46731362 13.88806754 -18.5 15.875 Z " fill="#ABABAB" transform="translate(382.5,358.125)"/>
<path d="M0 0 C0.33 0 0.66 0 1 0 C0.50769231 6.4 0.50769231 6.4 -2.0625 9.4375 C-3.0215625 10.2109375 -3.0215625 10.2109375 -4 11 C-4.66 10.67 -5.32 10.34 -6 10 C-5.67 9.34 -5.34 8.68 -5 8 C-4.34 8 -3.68 8 -3 8 C-2.67 6.68 -2.34 5.36 -2 4 C-1.34 4 -0.68 4 0 4 C0 2.68 0 1.36 0 0 Z " fill="#C4C4C4" transform="translate(408,341)"/>
<path d="M0 0 C0.33 0 0.66 0 1 0 C1.66 4.95 2.32 9.9 3 15 C-0.63636364 11.36363636 -0.63636364 11.36363636 -1 8 C-0.77763824 5.30580289 -0.40154954 2.6769969 0 0 Z " fill="#C4C4C4" transform="translate(261,187)"/>
<path d="M0 0 C3.375 0.25 3.375 0.25 7 1 C8.4375 3.0625 8.4375 3.0625 9 5 C2.25 3.375 2.25 3.375 0 0 Z " fill="#BCBBBB" transform="translate(67,108)"/>
</svg>
