<svg width="20" height="21" viewBox="0 0 20 21" fill="#ffffff" xmlns="http://www.w3.org/2000/svg">
<path d="M10.001 0.975098C15.524 0.975098 20.001 5.4521 20.001 10.9751C20.001 16.4981 15.524 20.9751 10.001 20.9751C8.23377 20.9779 6.49765 20.5103 4.97099 19.6201L0.00499063 20.9751L1.35699 16.0071C0.466084 14.48 -0.00196181 12.7431 0.000990443 10.9751C0.000990443 5.4521 4.47799 0.975098 10.001 0.975098ZM6.59299 6.2751L6.39299 6.2831C6.26351 6.29098 6.13697 6.325 6.02099 6.3831C5.91251 6.44453 5.81349 6.52132 5.72699 6.6111C5.60699 6.7241 5.53899 6.8221 5.46599 6.9171C5.09611 7.398 4.89696 7.98841 4.89999 8.5951C4.90199 9.0851 5.02999 9.5621 5.22999 10.0081C5.63899 10.9101 6.31199 11.8651 7.19999 12.7501C7.41399 12.9631 7.62399 13.1771 7.84999 13.3761C8.95338 14.3476 10.2682 15.0481 11.69 15.4221L12.258 15.5091C12.443 15.5191 12.628 15.5051 12.814 15.4961C13.1052 15.4811 13.3896 15.4022 13.647 15.2651C13.7779 15.1976 13.9057 15.1242 14.03 15.0451C14.03 15.0451 14.073 15.0171 14.155 14.9551C14.29 14.8551 14.373 14.7841 14.485 14.6671C14.568 14.5811 14.64 14.4801 14.695 14.3651C14.773 14.2021 14.851 13.8911 14.883 13.6321C14.907 13.4341 14.9 13.3261 14.897 13.2591C14.893 13.1521 14.804 13.0411 14.707 12.9941L14.125 12.7331C14.125 12.7331 13.255 12.3541 12.723 12.1121C12.6673 12.0878 12.6077 12.0739 12.547 12.0711C12.4786 12.0641 12.4094 12.0718 12.3442 12.0937C12.279 12.1156 12.2193 12.1512 12.169 12.1981C12.164 12.1961 12.097 12.2531 11.374 13.1291C11.3325 13.1849 11.2753 13.227 11.2098 13.2502C11.1443 13.2733 11.0733 13.2764 11.006 13.2591C10.9408 13.2416 10.877 13.2196 10.815 13.1931C10.691 13.1411 10.648 13.1211 10.563 13.0851C9.98906 12.8346 9.45768 12.4962 8.98799 12.0821C8.86199 11.9721 8.74499 11.8521 8.62499 11.7361C8.23158 11.3593 7.88871 10.9331 7.60499 10.4681L7.54599 10.3731C7.50361 10.3093 7.46935 10.2404 7.44399 10.1681C7.40599 10.0211 7.50499 9.9031 7.50499 9.9031C7.50499 9.9031 7.74799 9.6371 7.86099 9.4931C7.97099 9.3531 8.06399 9.2171 8.12399 9.1201C8.24199 8.9301 8.27899 8.7351 8.21699 8.5841C7.93699 7.9001 7.64699 7.2191 7.34899 6.5431C7.28999 6.4091 7.11499 6.3131 6.95599 6.2941C6.90199 6.2881 6.84799 6.2821 6.79399 6.2781C6.6597 6.27143 6.52513 6.27276 6.39099 6.2821L6.59199 6.2741L6.59299 6.2751Z" fill="#054E3B"/>
</svg>
