<?xml version="1.0" encoding="UTF-8"?>
<svg version="1.1" xmlns="http://www.w3.org/2000/svg" width="200" height="200">
<path d="M0 0 C66 0 132 0 200 0 C200 66 200 132 200 200 C134 200 68 200 0 200 C0 134 0 68 0 0 Z " fill="#FEFEFE" transform="translate(0,0)"/>
<path d="M0 0 C0.93251587 0.00402832 1.86503174 0.00805664 2.82580566 0.01220703 C6.25516905 0.03287847 9.68424837 0.08872041 13.11328125 0.140625 C20.80640625 0.223125 28.49953125 0.305625 36.42578125 0.390625 C36.75578125 17.550625 37.08578125 34.710625 37.42578125 52.390625 C44.60964532 39.22020754 51.7832682 26.04984755 58.859375 12.82226562 C59.43042969 11.75814453 60.00148438 10.69402344 60.58984375 9.59765625 C61.0895166 8.6641333 61.58918945 7.73061035 62.10400391 6.76879883 C63.42578125 4.390625 63.42578125 4.390625 65.42578125 1.390625 C68.24783325 1.02986145 68.24783325 1.02986145 71.89501953 1.05004883 C72.89032181 1.04939171 72.89032181 1.04939171 73.9057312 1.04872131 C76.10281625 1.05081432 78.29914174 1.07416801 80.49609375 1.09765625 C82.01780785 1.10325042 83.53952735 1.10752136 85.06124878 1.11051941 C89.06942624 1.12198239 93.07727837 1.1514617 97.08532715 1.18463135 C101.17402749 1.21530116 105.26278032 1.22901811 109.3515625 1.24414062 C117.3764515 1.27633033 125.40107593 1.32754384 133.42578125 1.390625 C132.7600323 7.51551538 131.26659957 12.25456392 129.42578125 18.390625 C116.55578125 18.720625 103.68578125 19.050625 90.42578125 19.390625 C87.83747803 25.42999919 85.95121299 31.09718691 84.23828125 37.390625 C83.96564453 38.3496875 83.69300781 39.30875 83.41210938 40.296875 C83.15494141 41.2353125 82.89777344 42.17375 82.6328125 43.140625 C82.28440308 44.40132812 82.28440308 44.40132812 81.92895508 45.6875 C81.21227924 49.07933004 81.21227924 49.07933004 81.42578125 55.390625 C88.02578125 55.720625 94.62578125 56.050625 101.42578125 56.390625 C102.08578125 53.090625 102.74578125 49.790625 103.42578125 46.390625 C98.80578125 46.390625 94.18578125 46.390625 89.42578125 46.390625 C89.96995799 39.53399803 91.11908207 35.31072254 93.42578125 28.390625 C104.31578125 28.390625 115.20578125 28.390625 126.42578125 28.390625 C124.171813 38.53348214 124.171813 38.53348214 123.2421875 42.07421875 C123.03851563 42.85200684 122.83484375 43.62979492 122.625 44.43115234 C121.75785584 47.69557771 120.88418799 50.95819946 120.00439453 54.21923828 C119.5216516 56.03084826 119.06255628 57.84873864 118.609375 59.66796875 C117.24594341 64.84900878 115.91238433 68.10044941 111.42578125 71.390625 C105.74097661 73.88872991 101.1878055 74.84081813 95.015625 74.7890625 C93.85892052 74.79336777 93.85892052 74.79336777 92.67884827 74.79776001 C91.06120054 74.79978687 89.44352753 74.7943543 87.82592773 74.78173828 C85.36581147 74.76564156 82.90733216 74.7816444 80.44726562 74.80078125 C78.86588183 74.798799 77.28449905 74.7949557 75.703125 74.7890625 C74.97689438 74.79513519 74.25066376 74.80120789 73.50242615 74.8074646 C68.35441956 74.73735767 64.91713759 73.72799571 60.42578125 71.390625 C57.77399682 68.59550087 56.09629165 65.82647828 54.42578125 62.390625 C53.97847656 62.93332031 53.53117187 63.47601563 53.0703125 64.03515625 C52.46574219 64.75058594 51.86117187 65.46601563 51.23828125 66.203125 C50.64660156 66.91082031 50.05492188 67.61851562 49.4453125 68.34765625 C46.36557058 71.46313986 43.79721776 73.23729055 39.37963867 73.73120117 C38.27467041 73.71549072 37.16970215 73.69978027 36.03125 73.68359375 C34.82919922 73.67392578 33.62714844 73.66425781 32.38867188 73.65429688 C30.51985352 73.6165918 30.51985352 73.6165918 28.61328125 73.578125 C26.71545898 73.55782227 26.71545898 73.55782227 24.77929688 73.53710938 C21.66102482 73.50180818 18.54362083 73.45249319 15.42578125 73.390625 C14.93078125 68.935625 14.93078125 68.935625 14.42578125 64.390625 C13.70390625 65.298125 12.98203125 66.205625 12.23828125 67.140625 C3.75988709 75.40511472 -8.91179744 74.86719192 -19.93554688 74.7421875 C-21.7526125 74.70878375 -23.5696698 74.67492421 -25.38671875 74.640625 C-27.25453799 74.62051476 -29.1223783 74.60227205 -30.99023438 74.5859375 C-35.51875973 74.54233356 -40.04624997 74.47356067 -44.57421875 74.390625 C-44.09856109 71.93156463 -43.61885823 69.47341507 -43.13671875 67.015625 C-43.00201172 66.31695312 -42.86730469 65.61828125 -42.72851562 64.8984375 C-41.6875 59.6171875 -41.6875 59.6171875 -40.57421875 57.390625 C-39.08426392 57.36875122 -39.08426392 57.36875122 -37.56420898 57.34643555 C-33.85324414 57.28814338 -30.1428666 57.2109147 -26.43237305 57.12817383 C-24.83123356 57.09506908 -23.22998143 57.06699279 -21.62866211 57.04418945 C-19.31706058 57.01037518 -17.00647797 56.95805049 -14.6953125 56.90234375 C-13.987733 56.89595383 -13.2801535 56.8895639 -12.5511322 56.88298035 C-7.49966027 56.73597499 -4.03171149 55.57736758 0.42578125 53.390625 C0.46850225 51.72450595 0.46641957 50.05679615 0.42578125 48.390625 C-1.43957502 46.52526873 -4.1158973 47.18572254 -6.60668945 47.10083008 C-23.97055918 46.50124657 -23.97055918 46.50124657 -29.14453125 42.03515625 C-33.22928451 37.49524477 -35.13445045 32.88594191 -34.94921875 26.76171875 C-33.59649471 18.20855739 -29.29351747 9.87983513 -22.57421875 4.390625 C-15.17355187 0.64614753 -8.17962028 -0.17077996 0 0 Z " fill="#747474" transform="translate(56.57421875,63.609375)"/>
<path d="M0 0 C1.09848267 0.00424484 2.19696533 0.00848969 3.32873535 0.01286316 C6.8131636 0.02956214 10.29699861 0.06719879 13.78125 0.10546875 C16.15363744 0.1205269 18.52603401 0.13421332 20.8984375 0.14648438 C26.69290836 0.17943687 32.48703678 0.2295484 38.28125 0.29296875 C36.41361819 6.01507471 34.42835968 11.66958626 32.28125 17.29296875 C31.24718018 17.31278809 30.21311035 17.33260742 29.14770508 17.35302734 C25.29899381 17.42929102 21.4506504 17.51797589 17.60229492 17.61035156 C15.93895752 17.64855571 14.27553992 17.68342338 12.61206055 17.71484375 C10.2163432 17.76068109 7.82117391 17.81864342 5.42578125 17.87890625 C4.6860054 17.89045746 3.94622955 17.90200867 3.18403625 17.91390991 C-2.03844279 18.0620776 -5.94928399 18.52350274 -9.71875 22.29296875 C-9.42891731 25.59980341 -9.42891731 25.59980341 -7.71875 28.29296875 C-6.3246026 28.40147506 -4.92556383 28.44871985 -3.52734375 28.46875 C-2.66431641 28.49259766 -1.80128906 28.51644531 -0.91210938 28.54101562 C0.89756136 28.5833396 2.70752118 28.61493301 4.51757812 28.63476562 C11.34717047 28.85181845 16.70265704 30.23739298 21.97509766 34.73925781 C24.68851267 37.96695373 23.72382064 42.65832211 23.62109375 46.65234375 C22.8588174 54.81833864 19.57377663 61.40424641 13.78979492 67.24047852 C3.86637755 75.35981378 -10.52753441 73.76955478 -22.53125 73.54296875 C-24.39906924 73.52285851 -26.26690955 73.5046158 -28.13476562 73.48828125 C-32.66329098 73.44467731 -37.19078122 73.37590442 -41.71875 73.29296875 C-41.24309234 70.83390838 -40.76338948 68.37575882 -40.28125 65.91796875 C-40.14654297 65.21929687 -40.01183594 64.520625 -39.87304688 63.80078125 C-38.83203125 58.51953125 -38.83203125 58.51953125 -37.71875 56.29296875 C-36.22879517 56.27109497 -36.22879517 56.27109497 -34.70874023 56.2487793 C-30.99777539 56.19048713 -27.28739785 56.11325845 -23.5769043 56.03051758 C-21.97576481 55.99741283 -20.37451268 55.96933654 -18.77319336 55.9465332 C-16.46159183 55.91271893 -14.15100922 55.86039424 -11.83984375 55.8046875 C-11.13226425 55.79829758 -10.42468475 55.79190765 -9.69566345 55.7853241 C-4.64419152 55.63831874 -1.17624274 54.47971133 3.28125 52.29296875 C3.323971 50.6268497 3.32188832 48.9591399 3.28125 47.29296875 C1.41589373 45.42761248 -1.26042855 46.08806629 -3.7512207 46.00317383 C-21.11509043 45.40359032 -21.11509043 45.40359032 -26.2890625 40.9375 C-30.37381576 36.39758852 -32.2789817 31.78828566 -32.09375 25.6640625 C-30.78186536 17.36912524 -26.50270774 8.43984711 -19.71875 3.29296875 C-13.0178142 0.17410666 -7.32667453 -0.10779677 0 0 Z " fill="#040404" transform="translate(53.71875,64.70703125)"/>
<path d="M0 0 C15.84 0 31.68 0 48 0 C48.33 17.16 48.66 34.32 49 52 C56.18386407 38.82958254 63.35748695 25.65922255 70.43359375 12.43164062 C71.00464844 11.36751953 71.57570313 10.30339844 72.1640625 9.20703125 C72.66373535 8.2735083 73.1634082 7.33998535 73.67822266 6.37817383 C75 4 75 4 77 1 C79.24658203 0.65942383 79.24658203 0.65942383 82.0078125 0.70703125 C82.99394531 0.71669922 83.98007813 0.72636719 84.99609375 0.73632812 C86.02863281 0.76146484 87.06117188 0.78660156 88.125 0.8125 C89.68541016 0.83280273 89.68541016 0.83280273 91.27734375 0.85351562 C93.85207627 0.88894772 96.4257833 0.93834779 99 1 C98.45592737 4.27958809 97.76242606 6.80710865 96.03125 9.64453125 C95.4278479 10.6487915 95.4278479 10.6487915 94.81225586 11.67333984 C94.37921143 12.3792627 93.94616699 13.08518555 93.5 13.8125 C92.5937719 15.32084617 91.68885643 16.82998166 90.78515625 18.33984375 C90.32383301 19.10796387 89.86250977 19.87608398 89.38720703 20.66748047 C87.18342209 24.37303509 85.05381192 28.11898002 82.9375 31.875 C82.5559375 32.54635986 82.174375 33.21771973 81.78125 33.90942383 C80.27583974 36.58490457 78.97348562 39.07954314 78 42 C77.34 42 76.68 42 76 42 C75.773125 42.825 75.54625 43.65 75.3125 44.5 C74.20965575 47.44091799 73.17323912 49.33660695 71.4375 51.875 C68.76327258 55.94926413 68.25883351 59.16844113 68 64 C67.34 63.34 66.68 62.68 66 62 C65.55269531 62.54269531 65.10539062 63.08539063 64.64453125 63.64453125 C64.03996094 64.35996094 63.43539062 65.07539063 62.8125 65.8125 C62.22082031 66.52019531 61.62914062 67.22789062 61.01953125 67.95703125 C57.93978933 71.07251486 55.37143651 72.84666555 50.95385742 73.34057617 C49.84888916 73.32486572 48.7439209 73.30915527 47.60546875 73.29296875 C46.40341797 73.28330078 45.20136719 73.27363281 43.96289062 73.26367188 C42.09407227 73.2259668 42.09407227 73.2259668 40.1875 73.1875 C38.28967773 73.16719727 38.28967773 73.16719727 36.35351562 73.14648438 C33.23524357 73.11118318 30.11783958 73.06186819 27 73 C26.77994046 71.26217134 26.57766925 69.52208472 26.3828125 67.78125 C26.26824707 66.81251953 26.15368164 65.84378906 26.03564453 64.84570312 C25.98067732 60.45736195 27.78396117 57.64186226 30 54 C31.14786006 50.55641981 31.27601609 47.69064088 31.375 44.0625 C31.42398438 42.83660156 31.47296875 41.61070313 31.5234375 40.34765625 C31.30746355 36.88121976 31.30746355 36.88121976 28.7890625 34.68359375 C21.93302948 30.54500799 15.97453064 30.63866653 8.12890625 30.52148438 C6.82373047 30.4818457 6.82373047 30.4818457 5.4921875 30.44140625 C4.70183105 30.42795166 3.91147461 30.41449707 3.09716797 30.40063477 C0.4940811 29.90335123 -0.43160794 29.10857385 -2 27 C-1.85773269 24.1546538 -1.39950843 22.53267791 0.3125 20.25 C4.34271083 17.26465865 9.24153635 17.86905004 14.046875 17.90234375 C15.20367767 17.90446617 15.20367767 17.90446617 16.3838501 17.90663147 C18.83927338 17.91221466 21.29460442 17.92476405 23.75 17.9375 C25.41796743 17.94251717 27.08593629 17.9470797 28.75390625 17.95117188 C32.83597287 17.96217859 36.91797081 17.97943164 41 18 C41.18175781 17.35933594 41.36351562 16.71867187 41.55078125 16.05859375 C41.80214844 15.19363281 42.05351563 14.32867187 42.3125 13.4375 C42.55613281 12.59058594 42.79976562 11.74367188 43.05078125 10.87109375 C44.16322594 7.50629192 45.60397843 4.25738366 47 1 C31.49 1 15.98 1 0 1 C0 0.67 0 0.34 0 0 Z " fill="#7AAA52" transform="translate(45,64)"/>
<path d="M0 0 C0.9796875 0.00322266 1.959375 0.00644531 2.96875 0.00976562 C3.98453125 0.01814453 5.0003125 0.02652344 6.046875 0.03515625 C7.59375 0.04192383 7.59375 0.04192383 9.171875 0.04882812 C11.71356654 0.06059522 14.25522818 0.07853015 16.796875 0.09765625 C16.796875 4.71765625 16.796875 9.33765625 16.796875 14.09765625 C15.85328125 13.94039062 14.9096875 13.783125 13.9375 13.62109375 C10.90017369 13.18522366 7.91017995 12.98658333 4.84375 12.88671875 C3.9775 12.85835937 3.11125 12.83 2.21875 12.80078125 C0.42209759 12.74824755 -1.37481824 12.70411644 -3.171875 12.66796875 C-4.03296875 12.63703125 -4.8940625 12.60609375 -5.78125 12.57421875 C-6.55887695 12.55439941 -7.33650391 12.53458008 -8.13769531 12.51416016 C-10.70971839 11.99549924 -11.64505022 11.18197235 -13.203125 9.09765625 C-13.06085769 6.25231005 -12.60263343 4.63033416 -10.890625 2.34765625 C-7.57660524 -0.1071732 -4.00729407 -0.02329822 0 0 Z " fill="#F5F6F3" transform="translate(56.203125,81.90234375)"/>
<path d="M0 0 C0.33 0.66 0.66 1.32 1 2 C-0.07518118 4.44332726 -1.19808566 6.76754523 -2.4375 9.125 C-2.77587891 9.78371094 -3.11425781 10.44242188 -3.46289062 11.12109375 C-4.30149926 12.75106547 -5.14984811 14.37601909 -6 16 C-6.66 16 -7.32 16 -8 16 C-8.2475 16.825 -8.495 17.65 -8.75 18.5 C-9.92787341 21.79804554 -11.32265916 24.75061964 -12.93359375 27.84765625 C-14.0543579 30.10971137 -14.98891182 32.41117328 -15.9375 34.75 C-17.5973137 38.57881328 -19.41917578 40.71225119 -23 43 C-23 39.3095091 -21.87019186 37.63179785 -20.0625 34.4375 C-19.51722656 33.46683594 -18.97195312 32.49617188 -18.41015625 31.49609375 C-17.94480469 30.67238281 -17.47945313 29.84867188 -17 29 C-16.67 28.34 -16.34 27.68 -16 27 C-15.34 27 -14.68 27 -14 27 C-13.8956665 26.28432861 -13.79133301 25.56865723 -13.68383789 24.83129883 C-12.92257148 21.67942217 -11.72942834 19.4731286 -10.05859375 16.69921875 C-9.47529297 15.72275391 -8.89199219 14.74628906 -8.29101562 13.74023438 C-7.67935547 12.73283203 -7.06769531 11.72542969 -6.4375 10.6875 C-5.82197266 9.66076172 -5.20644531 8.63402344 -4.57226562 7.57617188 C-3.05463946 5.04679494 -1.53038935 2.52166788 0 0 Z " fill="#6C7C62" transform="translate(137,79)"/>
<path d="M0 0 C0.33 0.66 0.66 1.32 1 2 C0.02783203 4.10717773 0.02783203 4.10717773 -1.4921875 6.68359375 C-2.03230469 7.61107422 -2.57242188 8.53855469 -3.12890625 9.49414062 C-3.99322266 10.95110352 -3.99322266 10.95110352 -4.875 12.4375 C-5.99969223 14.35151705 -7.12218884 16.26682645 -8.2421875 18.18359375 C-8.7460498 19.03493896 -9.24991211 19.88628418 -9.76904297 20.76342773 C-11.11957514 23.05807738 -11.11957514 23.05807738 -12 26 C-12.66 26 -13.32 26 -14 26 C-14.226875 26.825 -14.45375 27.65 -14.6875 28.5 C-16.27426232 32.73136618 -18.50748237 36.25171013 -21 40 C-22 37 -22 37 -20.85546875 34.37109375 C-20.02982422 32.91896484 -20.02982422 32.91896484 -19.1875 31.4375 C-18.64480469 30.46683594 -18.10210937 29.49617188 -17.54296875 28.49609375 C-16 26 -16 26 -14 24 C-13.35232207 21.42938689 -13.35232207 21.42938689 -13 19 C-12.01 19 -11.02 19 -10 19 C-9.814375 18.071875 -9.62875 17.14375 -9.4375 16.1875 C-7.85265071 10.51234116 -4.17463911 4.17463911 0 0 Z " fill="#7EA15F" transform="translate(135,80)"/>
<path d="M0 0 C7.26 0 14.52 0 22 0 C21.02745 4.86275001 19.82739031 7.07813602 17 11 C16 8 16 8 17.4375 4.8125 C17.953125 3.884375 18.46875 2.95625 19 2 C18.37351563 2.01160156 17.74703125 2.02320312 17.1015625 2.03515625 C16.28429687 2.04417969 15.46703125 2.05320312 14.625 2.0625 C13.81289062 2.07410156 13.00078125 2.08570312 12.1640625 2.09765625 C10 2 10 2 8 1 C8 1.66 8 2.32 8 3 C6.02 3.66 4.04 4.32 2 5 C1.01 4.01 0.02 3.02 -1 2 C-0.67 1.34 -0.34 0.68 0 0 Z " fill="#7BA35A" transform="translate(122,65)"/>
<path d="M0 0 C0.66 0 1.32 0 2 0 C4.18317037 6.5495111 3.33790212 14.31048942 2 21 C2 22.32 2 23.64 2 25 C0.35 25.33 -1.3 25.66 -3 26 C-2.7834375 25.46375 -2.566875 24.9275 -2.34375 24.375 C0.54501849 16.24365165 0.28475021 8.50032106 0 0 Z " fill="#6F9254" transform="translate(76,99)"/>
<path d="M0 0 C0.33 0 0.66 0 1 0 C1.60488416 6.04884158 1.60488416 6.04884158 -0.078125 8.6953125 C-1.35583993 10.15660717 -2.67669044 11.57986291 -4 13 C-4.33 13.99 -4.66 14.98 -5 16 C-5.66 16 -6.32 16 -7 16 C-7 16.99 -7 17.98 -7 19 C-7.66 19 -8.32 19 -9 19 C-7.6077541 14.37324343 -5.70479016 10.35313769 -3.375 6.125 C-2.74335937 4.97257812 -2.11171875 3.82015625 -1.4609375 2.6328125 C-0.97882813 1.76398438 -0.49671875 0.89515625 0 0 Z " fill="#87A965" transform="translate(115,77)"/>
<path d="M0 0 C1.0625 1.875 1.0625 1.875 2 4 C0.44679064 7.10641872 -2.17269967 9.07905911 -5 11 C-7.875 11.8125 -7.875 11.8125 -10 12 C-9.278125 11.319375 -8.55625 10.63875 -7.8125 9.9375 C-4.76544307 6.90785482 -2.42792046 3.53782696 0 0 Z " fill="#EBF7E2" transform="translate(111,124)"/>
<path d="M0 0 C0.33 0 0.66 0 1 0 C1 5.61 1 11.22 1 17 C0.67 17 0.34 17 0 17 C-0.33 14.69 -0.66 12.38 -1 10 C-1.66 10 -2.32 10 -3 10 C-2.39009109 6.44219804 -1.4216319 3.3171411 0 0 Z " fill="#769656" transform="translate(91,67)"/>
<path d="M0 0 C0.33 0 0.66 0 1 0 C1 2.64 1 5.28 1 8 C0.34 7.34 -0.32 6.68 -1 6 C-2.32 7.32 -3.64 8.64 -5 10 C-5.33 9.01 -5.66 8.02 -6 7 C-5.34 7 -4.68 7 -4 7 C-3.71125 6.21625 -3.4225 5.4325 -3.125 4.625 C-2 2 -2 2 0 0 Z " fill="#86A56D" transform="translate(112,120)"/>
<path d="M0 0 C0.33 0 0.66 0 1 0 C1.33 2.97 1.66 5.94 2 9 C0.35 9.33 -1.3 9.66 -3 10 C-2.01 6.7 -1.02 3.4 0 0 Z " fill="#759B51" transform="translate(76,115)"/>
<path d="M0 0 C0.99 0.33 1.98 0.66 3 1 C2.45859375 1.81404297 2.45859375 1.81404297 1.90625 2.64453125 C1.4421875 3.35996094 0.978125 4.07539062 0.5 4.8125 C0.0359375 5.52019531 -0.428125 6.22789063 -0.90625 6.95703125 C-2.23599375 9.05458124 -2.23599375 9.05458124 -2 12 C-3.32 12.33 -4.64 12.66 -6 13 C-4.31326082 8.50202887 -2.18326108 4.27113698 0 0 Z " fill="#707D66" transform="translate(144,65)"/>
<path d="M0 0 C0.66 0 1.32 0 2 0 C0.74194623 4.50802601 -0.90407165 7.4912812 -4 11 C-4 9.02 -4 7.04 -4 5 C-3.01 5 -2.02 5 -1 5 C-0.67 3.35 -0.34 1.7 0 0 Z " fill="#EDF9E0" transform="translate(97,107)"/>
<path d="M0 0 C1.25 1.5625 1.25 1.5625 2 4 C0.93237266 6.57001015 -0.46544943 8.6530403 -2 11 C-3.25 9.4375 -3.25 9.4375 -4 7 C-2.93237266 4.42998985 -1.53455057 2.3469597 0 0 Z " fill="#82AA62" transform="translate(98,109)"/>
<path d="M0 0 C-0.66 1.32 -1.32 2.64 -2 4 C-2.99 4 -3.98 4 -5 4 C-5 4.66 -5 5.32 -5 6 C-5.66 6 -6.32 6 -7 6 C-6.75 4.125 -6.75 4.125 -6 2 C-3.85331506 0.61504198 -2.56128588 0 0 0 Z " fill="#82AC5D" transform="translate(108,99)"/>
</svg>
